<?xml version="1.0" encoding="UTF-8"?>
<svg id="Layer_1" data-name="Layer 1" xmlns="http://www.w3.org/2000/svg" viewBox="0 0 171.95 138.86">
  <defs>
    <style>
      .cls-1 {
        font-size: 72px;
      }

      .cls-1, .cls-2 {
        fill: #212529;
        font-family: Oscine-Regular, Oscine;
      }

      .cls-3 {
        letter-spacing: 0em;
      }

      .cls-2 {
        font-size: 64px;
      }

      .cls-4 {
        fill: #d1e9f9;
        stroke: #d1e9f9;
      }

      .cls-4, .cls-5 {
        stroke-miterlimit: 10;
      }

      .cls-5 {
        fill: none;
        stroke: #212529;
        stroke-width: 6px;
      }
    </style>
  </defs>
  <path class="cls-4" d="m36.71,20.89c.55,1.59,1.35,3.83,2.38,6.47,3.07,7.8,6.23,14.05,9.36,19.74,6.21,11.31,7,10.87,14.81,24.51,6.02,10.51,7.71,14.55,8.85,19.4,1,4.27,2.19,9.35,1.02,15.66-2.2,11.83-10.99,18.79-13.45,20.6-11.03,8.1-23.11,6.89-26.72,6.47-3.62-.42-16.47-1.91-25.02-12.94-9.28-11.96-6.58-26.22-6.13-28.6,1.33-7.03,5.4-14.24,8.51-19.91,1.5-2.73,2.86-4.94,3.83-6.47,4.14-7.01,8.28-14.01,12.43-21.02,1.63-3.38,3.25-6.77,4.88-10.15.97-2.44,1.93-4.89,2.9-7.33.78-2.15,1.57-4.29,2.35-6.44Z"/>
  <path class="cls-5" d="m3.27,125.08c-.05-3.22-.13-9.27-.21-15.83-.1-7.61-.13-11.5.61-15.66.25-1.38.84-4.38,3.01-10.38,2.19-6.07,5.06-12.63,9.54-20.85,5.1-9.35,6.11-9.53,11.64-19.96,4.58-8.64,5.59-11.74,6.16-13.78,1.37-4.89,1.67-8.81,2.62-8.83.94-.02,1.42,3.81,2.87,8.58,1.24,4.06,2.95,7.35,6.39,13.92,2.15,4.11,4.27,7.74,12.05,20.37,5.2,8.44,9.07,14,11.58,20.75,1.77,4.77,2.11,9.48,2.32,11.09.36,2.77.58,5.68.54,15.33-.02,3.97-.08,9.19-.26,15.34"/>
  <line class="cls-5" x1="16.05" y1="62.63" x2="57.93" y2="62.65"/>
  <text class="cls-1" transform="translate(58.84 61.63)"><tspan x="0" y="0">qua</tspan></text>
  <text class="cls-2" transform="translate(77.63 125.16)"><tspan x="0" y="0">le</tspan><tspan class="cls-3" x="46.72" y="0">r</tspan><tspan x="69.12" y="0">t</tspan></text>
</svg>